HIERARCHY
ROOT hip
{
	OFFSET 0.000000 0.000000 0.000000 
	CHANNELS 6 Xposition Yposition Zposition Xrotation Zrotation Yrotation
	JOINT abdomen
	{
		OFFSET 0.000000 3.402643 0.000000 
		CHANNELS 3 Xrotation Zrotation Yrotation
		JOINT chest
		{
			OFFSET 0.000000 8.438565 -0.680529 
			CHANNELS 3 Xrotation Zrotation Yrotation
			JOINT neck
			{
				OFFSET 0.000000 10.207942 -0.272212 
				CHANNELS 3 Xrotation Zrotation Yrotation
				JOINT head
				{
					OFFSET 0.000000 3.130431 0.000000 
					CHANNELS 3 Xrotation Zrotation Yrotation
					End Site
					{
						OFFSET 0.000000 3.130435 0.000000 
					}
				}
			}
			JOINT lCollar
			{
				OFFSET 3.470700 6.669187 -0.816635 
				CHANNELS 3 Yrotation Zrotation Xrotation
				JOINT lShldr
				{
					OFFSET 3.198488 0.000000 0.000000 
					CHANNELS 3 Zrotation Yrotation Xrotation
					JOINT lForeArm
					{
						OFFSET 10.139888 0.000000 0.000000 
						CHANNELS 3 Yrotation Zrotation Xrotation
						JOINT lHand
						{
							OFFSET 8.370511 0.000000 0.000000 
							CHANNELS 3 Zrotation Yrotation Xrotation
							End Site
							{
								OFFSET 4.083176 0.000000 0.000000 
							}
						}
					}
				}
			}
			JOINT rCollar
			{
				OFFSET -3.470700 6.669187 -0.816635 
				CHANNELS 3 Yrotation Zrotation Xrotation
				JOINT rShldr
				{
					OFFSET -3.198488 0.000000 0.000000 
					CHANNELS 3 Zrotation Yrotation Xrotation
					JOINT rForeArm
					{
						OFFSET -10.139888 0.000000 0.000000 
						CHANNELS 3 Yrotation Zrotation Xrotation
						JOINT rHand
						{
							OFFSET -8.370511 0.000000 0.000000 
							CHANNELS 3 Zrotation Yrotation Xrotation
							End Site
							{
								OFFSET -4.083176 0.000000 0.000000 
							}
						}
					}
				}
			}
		}
	}
	JOINT lThigh
	{
		OFFSET 5.308129 -1.633274 1.361059 
		CHANNELS 3 Xrotation Zrotation Yrotation
		JOINT lShin
		{
			OFFSET -2.041588 -20.007561 0.000000 
			CHANNELS 3 Xrotation Zrotation Yrotation
			JOINT lFoot
			{
				OFFSET 0.000000 -19.190928 -1.224953 
				CHANNELS 3 Xrotation Yrotation Zrotation
				End Site
				{
					OFFSET 0.000000 -2.449906 4.627600 
				}
			}
		}
	}
	JOINT rThigh
	{
		OFFSET -5.308129 -1.633274 1.361059 
		CHANNELS 3 Xrotation Zrotation Yrotation
		JOINT rShin
		{
			OFFSET 2.041588 -20.007561 0.000000 
			CHANNELS 3 Xrotation Zrotation Yrotation
			JOINT rFoot
			{
				OFFSET 0.000000 -19.190928 -1.224953 
				CHANNELS 3 Xrotation Yrotation Zrotation
				End Site
				{
					OFFSET 0.000000 -2.449906 4.627600 
				}
			}
		}
	}
}
MOTION
Frames: 10
Frame Time: 0.016667
-1.104920 15.887846 1.816537 71.428902 -5.075196 1.950423 0.507704 -0.048828 0.126953 11.845983 -0.370972 1.464813 -24.044270 4.049776 2.193070 -28.936964 3.773765 5.157791 -19.615152 1.806937 -7.403471 -18.087725 -4.011404 -18.684240 -133.724258 8.064949 22.962454 11.466491 14.190583 -9.750769 17.059843 -3.039633 6.521545 24.780767 4.853261 -41.170055 123.076118 -7.878296 29.747824 -31.190466 -21.496906 -41.581776 -16.185301 16.067810 2.737205 72.810516 0.715906 7.084147 39.271172 -13.017468 -11.611066 -14.078331 -16.663952 -8.745289 81.947662 0.175025 -5.819717 32.437115 9.496784 10.139921 
-1.196099 15.826981 1.647678 71.748047 -5.192666 1.832816 0.634692 -0.039062 0.107422 11.776272 -0.429551 1.445345 -23.597040 3.026645 1.232362 -29.860840 5.012227 5.931602 -19.136187 7.258019 4.386085 -16.775518 -9.202728 -30.489767 -134.021133 10.017025 22.957062 9.757000 14.055037 -12.248551 17.289875 -3.979807 4.598512 21.792498 4.551649 -42.994167 118.121742 -8.431859 15.823295 -29.897507 -10.439566 -30.480009 -14.551143 13.750359 6.768505 69.188545 0.559867 5.616500 38.529682 -11.212309 -12.663145 -16.197815 -14.849503 -8.085189 79.069168 0.234018 -3.978610 31.893589 6.944962 11.401649 
-1.385132 15.749807 1.224143 72.813934 -5.437525 1.529536 0.585871 -0.039062 0.097656 11.425719 -0.400270 1.406284 -25.224192 3.143978 1.076351 -29.192091 4.935214 5.852076 -19.503044 11.265116 5.547660 -9.780597 -9.732158 -36.991707 -131.784409 9.423580 20.011982 8.989394 12.631627 -12.369302 17.858835 -8.419724 4.992412 16.963757 5.094593 -49.324032 116.769241 -8.609606 15.778877 -26.328609 -12.918213 -29.669611 -13.143088 13.035279 6.988698 61.256550 0.396564 5.375832 37.372246 -9.686044 -12.930808 -15.066151 -14.137897 -8.078085 72.460335 0.419903 -4.148077 31.026731 5.133896 11.718941 
-1.574155 15.672634 0.800634 73.873840 -5.672556 1.216590 0.546830 -0.029297 0.087891 11.074962 -0.380753 1.357392 -26.852140 3.251536 0.919814 -28.514194 4.858253 5.763668 -19.963240 15.254494 6.754799 -2.783414 -9.471919 -43.502186 -129.578568 8.706449 17.090290 8.229725 11.202116 -12.465439 18.474670 -12.863715 5.426102 12.104583 5.103711 -55.665806 115.407684 -8.778655 15.724216 -22.766327 -15.433345 -29.018560 -11.744791 12.319932 7.227346 53.333351 0.230730 5.122801 36.232731 -8.177710 -13.167143 -13.912654 -13.394192 -8.038848 65.832764 0.594989 -4.370111 30.172047 3.332751 11.994890 
-1.825009 15.573240 0.273071 75.194130 -5.868607 0.775429 0.478461 -0.029297 0.107422 10.694588 -0.370996 1.318332 -28.882370 2.958666 0.841245 -27.546988 4.938623 5.450664 -19.830986 18.233162 6.770652 4.616124 -6.388828 -47.553112 -125.948685 8.233292 13.792303 7.321559 10.777050 -12.971590 18.302996 -16.201181 4.995140 5.351028 2.387245 -59.131065 110.739357 -9.587084 15.590045 -21.387074 -15.573416 -28.913321 -10.231330 11.294549 6.949638 44.059334 0.000222 5.063523 35.234421 -6.493905 -12.990846 -12.498860 -12.420377 -7.918025 57.391861 0.898480 -4.495489 29.334105 1.565570 11.850133 
-2.075851 15.473857 -0.254475 76.518608 -6.044826 0.323559 0.410096 -0.029297 0.117187 10.314198 -0.361238 1.279272 -30.911663 2.675544 0.762712 -26.570004 5.028653 5.137671 -19.694181 21.217249 6.786218 11.742133 -2.820807 -51.163074 -122.353508 7.558846 10.535018 6.417042 10.349878 -13.473975 18.099543 -19.552711 4.532395 -1.224783 -0.712846 -62.246410 106.049248 -10.371705 15.376472 -20.007488 -15.711860 -28.832527 -8.730387 10.282889 6.673513 34.755409 -0.240851 5.047129 34.266682 -4.818568 -12.763412 -11.073782 -11.444692 -7.752604 48.948910 1.171041 -4.689461 28.474142 -0.166331 11.721249 
-2.312823 15.415405 -0.863494 77.880539 -6.132805 -0.088431 0.351476 -0.039062 0.126953 9.894893 -0.361251 1.181617 -30.875904 2.402238 0.537865 -27.431255 4.942307 4.980306 -19.172186 23.645313 6.315765 17.503437 2.537639 -51.547886 -117.206345 7.995505 9.673524 6.119534 11.503207 -13.621240 17.745174 -21.465166 3.962363 -8.403430 -6.086939 -62.143917 97.693192 -10.598873 13.074885 -18.682652 -16.230177 -26.762146 -7.489017 9.333969 5.953690 26.742937 -0.503125 5.175019 33.189659 -2.800057 -11.926245 -9.506966 -10.364469 -7.389658 39.583065 1.249075 -4.640055 28.431803 -1.509189 10.686532 
-2.549785 15.356967 -1.472513 79.235039 -6.220458 -0.511172 0.292869 -0.039062 0.146484 9.475711 -0.351498 1.093729 -30.837938 2.138640 0.313011 -28.291199 4.855812 4.831851 -18.610334 26.062666 5.798376 23.278921 7.915158 -51.391830 -112.058960 8.356367 8.777602 5.819858 12.657698 -13.782433 17.352825 -23.387274 3.355159 -15.701107 -11.407649 -61.357613 89.332260 -10.498218 10.762983 -17.376932 -16.789877 -24.707138 -6.226618 8.411752 5.232464 18.702755 -0.745048 5.314345 32.122375 -0.782789 -11.071719 -7.916703 -9.292039 -7.007642 30.222891 1.337830 -4.600733 28.363420 -2.848043 9.658748 
-2.685203 15.383982 -2.062602 80.389137 -6.220233 -0.707450 0.253820 -0.039062 0.126953 9.095396 -0.380809 0.927714 -31.373770 1.865232 0.097922 -28.284744 4.750695 4.547194 -17.807161 27.487350 5.297517 26.350275 12.359757 -49.806740 -105.618256 9.317543 9.727887 7.770931 14.350245 -14.186590 16.733885 -24.493082 2.824405 -21.399246 -17.115072 -57.010216 80.703011 -10.970638 10.444438 -18.067993 -17.382349 -20.142872 -5.837184 7.964557 4.874342 14.802832 -0.810811 5.048374 30.792276 0.617047 -10.158794 -6.775297 -8.531760 -6.556268 23.478765 1.112196 -4.163831 28.543081 -3.558146 8.108123 
-2.820608 15.411002 -2.652677 81.543236 -6.219936 -0.904787 0.224554 -0.029297 0.107422 8.715448 -0.400356 0.751935 -31.897516 1.591794 -0.107380 -28.288521 4.635698 4.252804 -16.979013 28.901802 4.768597 29.605694 16.703520 -47.944901 -99.186043 10.384203 10.569069 9.736355 16.055817 -14.530780 16.093552 -25.604523 2.258395 -27.755827 -22.352062 -51.921940 72.057472 -11.392241 10.060905 -18.800947 -17.928030 -15.552891 -5.406705 7.484746 4.531756 10.859122 -0.858133 4.798141 29.469776 1.950918 -9.201475 -5.631292 -7.767402 -6.098626 16.739517 0.955910 -3.661749 28.712944 -4.273726 6.589733 
